<svg width="300" height="300" viewBox="0 0 300 300" fill="none" xmlns="http://www.w3.org/2000/svg">
<rect width="300" height="300" rx="150" fill="#A333FF"/>
<rect width="300" height="300" rx="150" fill="#A333FF"/>
<rect width="300" height="300" rx="150" fill="#A333FF"/>
<path d="M183.158 68H94.7368C86.6316 68 80 74.7091 80 82.9091V187.273H94.7368V82.9091H183.158V68ZM205.263 97.8182H124.211C116.105 97.8182 109.474 104.527 109.474 112.727V217.091C109.474 225.291 116.105 232 124.211 232H205.263C213.368 232 220 225.291 220 217.091V112.727C220 104.527 213.368 97.8182 205.263 97.8182ZM205.263 217.091H124.211V112.727H205.263V217.091Z" fill="white"/>
</svg>
