<?xml version="1.0" standalone="no"?>
<!DOCTYPE svg PUBLIC "-//W3C//DTD SVG 20010904//EN"
 "http://www.w3.org/TR/2001/REC-SVG-20010904/DTD/svg10.dtd">
<svg version="1.0" xmlns="http://www.w3.org/2000/svg"
 width="700.000000pt" height="700.000000pt" viewBox="0 0 700.000000 700.000000"
 preserveAspectRatio="xMidYMid meet">
<metadata>
Created by potrace 1.14, written by Peter Selinger 2001-2017
</metadata>
<g transform="translate(0.000000,700.000000) scale(0.100000,-0.100000)"
fill="#000000" stroke="none">
<path d="M1880 6989 c-284 -29 -606 -136 -851 -282 -581 -347 -951 -930 -1019
-1606 -14 -142 -14 -3071 0 -3212 55 -539 323 -1051 729 -1390 330 -277 729
-446 1150 -489 141 -14 3081 -14 3222 0 539 55 1050 322 1391 729 217 260 377
581 448 899 50 225 50 241 50 1853 0 969 -4 1544 -10 1610 -101 1006 -883
1789 -1884 1888 -133 13 -3096 13 -3226 0z m2435 -1740 c77 -29 155 -102 191
-181 27 -59 29 -73 32 -220 l4 -157 172 -3 c154 -3 176 -5 217 -26 70 -34 122
-84 160 -154 l34 -63 3 -1295 c3 -1443 7 -1348 -67 -1446 -40 -53 -111 -106
-169 -126 -50 -17 -1945 -24 -2041 -8 -86 15 -149 49 -204 110 -72 80 -87 132
-87 310 l0 150 -138 0 c-158 0 -232 15 -304 62 -56 35 -99 87 -131 155 l-22
48 0 1305 0 1305 27 55 c37 75 111 145 184 175 l59 25 1012 0 c1000 0 1013 0
1068 -21z"/>
<path d="M2307 4923 c-4 -3 -7 -552 -7 -1220 l0 -1213 130 0 130 0 -2 963 -3
962 23 57 c31 76 99 150 170 185 l57 28 695 5 695 5 0 115 0 115 -941 3 c-517
1 -944 -1 -947 -5z"/>
<path d="M2900 3130 l0 -1220 945 0 945 0 0 1220 0 1220 -945 0 -945 0 0
-1220z"/>
</g>
</svg>
