<?xml version="1.0" standalone="no"?>
<!DOCTYPE svg PUBLIC "-//W3C//DTD SVG 20010904//EN"
 "http://www.w3.org/TR/2001/REC-SVG-20010904/DTD/svg10.dtd">
<svg version="1.0" xmlns="http://www.w3.org/2000/svg"
 width="700.000000pt" height="700.000000pt" viewBox="0 0 700.000000 700.000000"
 preserveAspectRatio="xMidYMid meet">
<metadata>
Created by potrace 1.14, written by Peter Selinger 2001-2017
</metadata>
<g transform="translate(0.000000,700.000000) scale(0.100000,-0.100000)"
fill="#000000" stroke="none">
<path d="M3170 6989 c-681 -67 -1335 -331 -1865 -755 -141 -113 -426 -398
-539 -539 -404 -506 -653 -1095 -743 -1755 -26 -193 -26 -687 0 -880 89 -658
340 -1250 743 -1755 113 -141 398 -426 539 -539 544 -435 1207 -698 1903 -757
178 -15 581 -6 742 16 651 88 1242 339 1745 741 142 113 426 398 539 539 435
546 698 1206 757 1903 15 179 6 582 -16 742 -91 659 -335 1234 -741 1745 -116
146 -420 448 -564 559 -511 396 -1074 632 -1720 722 -137 19 -636 27 -780 13z
m1100 -1749 l0 -170 -1030 0 -1030 0 0 -1220 0 -1220 -170 0 -170 0 2 1263 3
1262 26 56 c42 89 126 161 219 190 14 4 503 8 1088 8 l1062 1 0 -170z m662
-558 c74 -36 132 -95 170 -170 l23 -47 0 -1310 0 -1310 -26 -56 c-33 -69 -91
-129 -161 -166 l-53 -28 -1040 0 -1040 0 -50 25 c-64 31 -134 101 -165 165
l-25 50 -3 1302 c-2 1294 -2 1302 18 1357 39 103 146 194 254 216 22 4 489 7
1036 7 l995 -2 67 -33z"/>
<path d="M2900 3150 l0 -1220 945 0 945 0 0 1220 0 1220 -945 0 -945 0 0
-1220z"/>
</g>
</svg>
